<?xml version="1.0" encoding="utf-8"?>
<svg version="1.1" width="1080" height="1080" viewBox="0 0 1080 1080" xmlns="http://www.w3.org/2000/svg">
  <desc>Created with Fabric.js 5.2.4</desc>
  <rect x="0" y="0" width="100%" height="100%" rx="392" ry="392" style="fill: none;"/>
  <g id="93a0da54-2a90-4c9b-91b5-6494d3872230" transform="matrix(1, 0, 0, 1, 540.000008, 0)">
    <rect style="stroke: none; stroke-width: 1; stroke-dasharray: none; stroke-linecap: butt; stroke-dashoffset: 0; stroke-linejoin: miter; stroke-miterlimit: 4; fill-rule: nonzero; opacity: 1; fill: none;" vector-effect="non-scaling-stroke" x="-540" y="-540" rx="0" ry="0" width="1080" height="1080"/>
  </g>
  <g transform="matrix(1 0 0 1 540 540)" id="22044709-20be-4af5-a05e-805bb49380f5"/>
  <g transform="matrix(0 0 0 0 0 0)">
    <g style=""/>
  </g>
  <g transform="matrix(0 0 0 0 0 0)">
    <g style=""/>
  </g>
  <g transform="matrix(8.52 0 0 8.52 511.46 687.53)">
    <path style="stroke: none; stroke-width: 1; stroke-dasharray: none; stroke-linecap: butt; stroke-dashoffset: 0; stroke-linejoin: miter; stroke-miterlimit: 4; fill: rgb(181,16,24); fill-rule: evenodd; opacity: 1;" vector-effect="non-scaling-stroke" d="M 349.37 257.12 C 349.37 257.12 349.37 257.12 349.96 257.12 L 357.7 258.15 C 361.27 258.15 364.25 258.15 367.82 258.15 C 371.99 258.15 383.89 258.66999999999996 386.86 257.12 C 382.1 254.02 355.32 251.95000000000002 352.94 250.91 C 355.92 249.35999999999999 360.08 251.43 365.44 250.39 C 376.15 248.83999999999997 380.32 248.83999999999997 391.03 245.73999999999998 C 393.40999999999997 245.21999999999997 395.2 244.70999999999998 396.97999999999996 244.18999999999997 C 400.54999999999995 243.66999999999996 401.15 244.18999999999997 402.34 242.11999999999998 C 399.96 241.08999999999997 385.08 242.11999999999998 382.10999999999996 242.11999999999998 C 377.34999999999997 241.59999999999997 364.84999999999997 242.11999999999998 360.68999999999994 241.59999999999997 C 364.85999999999996 237.97999999999996 365.44999999999993 243.14999999999998 377.34999999999997 237.45999999999998 C 382.10999999999996 235.39 387.46999999999997 233.83999999999997 392.22999999999996 231.24999999999997 C 398.78 228.14999999999998 416.62999999999994 219.86999999999998 417.81999999999994 215.21999999999997 C 414.24999999999994 214.18999999999997 390.44999999999993 221.93999999999997 383.8999999999999 224.00999999999996 L 361.2899999999999 230.72999999999996 C 354.7399999999999 232.27999999999997 358.3099999999999 229.69999999999996 355.9299999999999 232.27999999999997 C 354.7399999999999 234.34999999999997 354.1399999999999 235.37999999999997 352.9499999999999 236.92999999999998 C 351.7599999999999 237.95999999999998 349.96999999999986 238.48 349.96999999999986 240.54999999999998 C 349.3799999999999 242.61999999999998 349.96999999999986 244.68999999999997 349.96999999999986 247.26999999999998 C 348.78 250.92 345.8 254.02 349.37 257.12" stroke-linecap="round" transform=" translate(-382.75, -236.68)"/>
  </g>
  <g transform="matrix(8.52 0 0 8.52 656.12 392.27)">
    <path style="stroke: none; stroke-width: 1; stroke-dasharray: none; stroke-linecap: butt; stroke-dashoffset: 0; stroke-linejoin: miter; stroke-miterlimit: 4; fill: rgb(181,16,24); fill-rule: evenodd; opacity: 1;" vector-effect="non-scaling-stroke" transform=" translate(-399.72, -202.04)" d="M 358.22 230.23 C 366.55 229.70999999999998 374.88000000000005 222.98999999999998 376.67 222.47 C 380.24 222.47 380.24 223.5 383.81 221.44 C 387.38 219.89 390.95 216.79 394.52 214.72 C 404.03999999999996 208.51 417.13 198.69 424.87 191.97 C 430.23 187.32 455.81 164.05 429.63 178.53 C 420.7 183.7 391.55 199.73 383.81 203.35 C 371.31 209.04 371.91 208 365.36 219.9 C 363.58 222.99 360.01 227.13 358.22 230.23" stroke-linecap="round"/>
  </g>
  <g transform="matrix(8.52 0 0 8.52 240.47 667.05)">
    <path style="stroke: none; stroke-width: 1; stroke-dasharray: none; stroke-linecap: butt; stroke-dashoffset: 0; stroke-linejoin: miter; stroke-miterlimit: 4; fill: rgb(181,16,24); fill-rule: evenodd; opacity: 1;" vector-effect="non-scaling-stroke" transform=" translate(-350.94, -233.98)" d="M 335.69 238.51 C 323.79 245.23 336.28 264.88 350.57 264.88 C 350.57 261.26 348.78 260.74 347.59 258.15999999999997 C 345.79999999999995 252.98999999999998 346.98999999999995 256.09 343.41999999999996 252.46999999999997 C 346.4 250.91999999999996 346.98999999999995 251.43999999999997 347.59 247.81999999999996 C 348.19 244.71999999999997 346.98999999999995 243.16999999999996 346.98999999999995 239.54999999999995 C 347.59 238.51999999999995 351.15999999999997 238.51999999999995 355.31999999999994 232.30999999999995 L 361.2699999999999 222.99999999999994 C 363.05999999999995 219.89999999999995 364.8399999999999 216.78999999999994 367.2199999999999 213.68999999999994 C 368.4099999999999 211.61999999999995 369.00999999999993 210.58999999999995 369.5999999999999 208.51999999999995 C 370.19999999999993 206.96999999999994 371.38999999999993 204.89999999999995 370.7899999999999 203.34999999999997 C 368.4099999999999 202.31999999999996 367.2199999999999 204.37999999999997 365.4299999999999 205.93999999999997 L 341.0299999999999 226.10999999999996 C 335.69 230.75 335.09 230.23 335.69 238.51" stroke-linecap="round"/>
  </g>
  <g transform="matrix(NaN NaN NaN NaN 0 0)">
    <g style=""/>
  </g>
</svg>