<svg xmlns="http://www.w3.org/2000/svg" xmlns:xlink="http://www.w3.org/1999/xlink" width="500" zoomAndPan="magnify" viewBox="0 0 375 374.999991" height="500" preserveAspectRatio="xMidYMid meet" version="1.0"><defs><clipPath id="51f2502917"><path d="M 194 101.917969 L 241 101.917969 L 241 169 L 194 169 Z M 194 101.917969 " clip-rule="nonzero"/></clipPath></defs><g clip-path="url(#51f2502917)"><path fill="#a6d71c" d="M 196.625 168.066406 C 196.625 168.066406 197.96875 139.449219 221.105469 120.359375 C 221.167969 120.304688 221.203125 120.277344 221.203125 120.277344 L 221.105469 120.359375 C 219.695312 121.566406 203.28125 136.222656 204.460938 165.167969 C 205.152344 164.859375 205.839844 164.539062 206.519531 164.203125 C 215.265625 159.902344 223.078125 153.449219 228.558594 145.351562 C 233.289062 138.355469 234.320312 130.050781 234.34375 121.875 C 234.351562 118.292969 234.960938 114.609375 236.160156 111.320312 C 237.339844 108.082031 238.867188 104.867188 240.757812 101.972656 C 178.195312 118.363281 196.625 168.066406 196.625 168.066406 " fill-opacity="1" fill-rule="nonzero"/></g><path fill="#60a331" d="M 194.644531 168.464844 C 194.644531 168.464844 185.046875 153.417969 166.632812 150.277344 C 166.578125 150.265625 166.550781 150.261719 166.550781 150.261719 L 166.632812 150.277344 C 167.765625 150.488281 181.179688 153.320312 189.511719 169.328125 C 189.042969 169.375 188.570312 169.414062 188.097656 169.445312 C 182.039062 169.832031 175.820312 168.769531 170.347656 166.089844 C 165.625 163.777344 162.492188 159.609375 159.945312 155.195312 C 158.832031 153.265625 157.359375 151.464844 155.695312 150.058594 C 154.054688 148.671875 152.230469 147.410156 150.3125 146.429688 C 189.199219 135.894531 194.644531 168.464844 194.644531 168.464844 " fill-opacity="1" fill-rule="nonzero"/><path fill="#a6d71c" d="M 150.902344 235.296875 L 123.121094 244.765625 C 111.84375 248.609375 99.03125 245.667969 89.6875 237.089844 C 88.96875 236.433594 88.921875 235.316406 89.578125 234.597656 C 90.238281 233.878906 91.351562 233.832031 92.070312 234.492188 C 100.464844 242.195312 111.925781 244.851562 121.980469 241.425781 L 149.765625 231.957031 C 150.683594 231.644531 151.6875 232.136719 152 233.058594 C 152.316406 233.980469 151.824219 234.984375 150.902344 235.296875 Z M 158 163.160156 L 100.34375 182.8125 C 82.035156 189.050781 72.253906 208.953125 78.488281 227.261719 C 84.726562 245.574219 104.625 255.359375 122.929688 249.121094 L 180.585938 229.472656 L 158 163.160156 " fill-opacity="1" fill-rule="nonzero"/><path fill="#60a331" d="M 291.316406 235.300781 C 290.34375 235.347656 289.519531 234.589844 289.480469 233.617188 C 288.988281 222.230469 282.761719 212.246094 273.230469 207.558594 L 246.890625 194.601562 C 246.019531 194.171875 245.65625 193.113281 246.089844 192.242188 C 246.519531 191.367188 247.574219 191.007812 248.449219 191.4375 L 274.785156 204.390625 C 285.476562 209.648438 292.457031 220.789062 293 233.464844 C 293.042969 234.4375 292.289062 235.261719 291.316406 235.300781 Z M 278 201.445312 L 223.339844 174.558594 L 192.4375 237.421875 L 247.09375 264.308594 C 264.449219 272.84375 285.4375 265.691406 293.972656 248.332031 C 302.503906 230.972656 295.355469 209.980469 278 201.445312 " fill-opacity="1" fill-rule="nonzero"/><path fill="#60a331" d="M 206.097656 177.578125 C 208.808594 178.910156 209.925781 182.191406 208.59375 184.902344 C 207.257812 187.613281 203.980469 188.730469 201.269531 187.398438 C 198.558594 186.066406 197.441406 182.785156 198.773438 180.074219 C 200.109375 177.359375 203.386719 176.246094 206.097656 177.578125 " fill-opacity="1" fill-rule="nonzero"/><path fill="#60a331" d="M 201.453125 200.128906 C 202.84375 200.8125 203.414062 202.496094 202.730469 203.882812 C 202.046875 205.273438 200.367188 205.847656 198.976562 205.164062 C 197.589844 204.480469 197.015625 202.800781 197.699219 201.410156 C 198.382812 200.019531 200.0625 199.449219 201.453125 200.128906 " fill-opacity="1" fill-rule="nonzero"/><path fill="#60a331" d="M 188.171875 183.664062 C 190.0625 184.59375 190.84375 186.882812 189.914062 188.777344 C 188.984375 190.667969 186.695312 191.449219 184.804688 190.519531 C 182.910156 189.585938 182.132812 187.296875 183.0625 185.40625 C 183.992188 183.511719 186.28125 182.734375 188.171875 183.664062 " fill-opacity="1" fill-rule="nonzero"/><path fill="#60a331" d="M 188.878906 200.195312 C 190.125 200.808594 190.636719 202.3125 190.023438 203.554688 C 189.414062 204.796875 187.910156 205.308594 186.667969 204.699219 C 185.425781 204.085938 184.914062 202.582031 185.523438 201.339844 C 186.136719 200.097656 187.636719 199.585938 188.878906 200.195312 " fill-opacity="1" fill-rule="nonzero"/></svg>