<?xml version="1.0" encoding="utf-8"?>
<svg version="1.1" id="Layer_1" x="0px" y="0px" viewBox="151.507 165.526 520 220" style="enable-background:new 0 0 841.89 595.28;" xmlns="http://www.w3.org/2000/svg">
  <style type="text/css">.st0 { fill: none; stroke: rgb(63, 102, 67); stroke-width: 0.75; stroke-miterlimit: 10; }
.st1 { fill: rgb(63, 102, 67); }
.st2 { fill-rule: evenodd; clip-rule: evenodd; fill: rgb(181, 16, 24); }</style>
  <g>
    <line class="st0" x1="645.1799926757812" y1="361.2699890136719" x2="645.18" y2="361.27"/>
    <line class="st0" x1="164.19" y1="360.03" x2="164.19000244140625" y2="360.0299987792969"/>
    <g>
      <g>
        <path class="st1" d="M 325.04 369.04 L 349.04 369.05 L 344.25 369.05 L 329.83 369.04 L 325.04 369.04 Z"/>
      </g>
      <g>
        <g transform="matrix(1, 0, 0, 1, 1.054161, 15.46086)">
          <g>
            <g>
              <path class="st2" d="M349.37,257.12c0,0,0,0,0.59,0l7.74,1.03c3.57,0,6.55,0,10.12,0c4.17,0,16.07,0.52,19.04-1.03 c-4.76-3.1-31.54-5.17-33.92-6.21c2.98-1.55,7.14,0.52,12.5-0.52c10.71-1.55,14.88-1.55,25.59-4.65 c2.38-0.52,4.17-1.03,5.95-1.55c3.57-0.52,4.17,0,5.36-2.07c-2.38-1.03-17.26,0-20.23,0c-4.76-0.52-17.26,0-21.42-0.52 c4.17-3.62,4.76,1.55,16.66-4.14c4.76-2.07,10.12-3.62,14.88-6.21c6.55-3.1,24.4-11.38,25.59-16.03 c-3.57-1.03-27.37,6.72-33.92,8.79l-22.61,6.72c-6.55,1.55-2.98-1.03-5.36,1.55c-1.19,2.07-1.79,3.1-2.98,4.65 c-1.19,1.03-2.98,1.55-2.98,3.62c-0.59,2.07,0,4.14,0,6.72C348.78,250.92,345.8,254.02,349.37,257.12"/>
            </g>
            <g>
              <path class="st2" d="M358.22,230.23c8.33-0.52,16.66-7.24,18.45-7.76c3.57,0,3.57,1.03,7.14-1.03 c3.57-1.55,7.14-4.65,10.71-6.72c9.52-6.21,22.61-16.03,30.35-22.75c5.36-4.65,30.94-27.92,4.76-13.44 c-8.93,5.17-38.08,21.2-45.82,24.82c-12.5,5.69-11.9,4.65-18.45,16.55C363.58,222.99,360.01,227.13,358.22,230.23"/>
            </g>
            <g>
              <path class="st2" d="M335.69,238.51c-11.9,6.72,0.59,26.37,14.88,26.37c0-3.62-1.79-4.14-2.98-6.72 c-1.79-5.17-0.6-2.07-4.17-5.69c2.98-1.55,3.57-1.03,4.17-4.65c0.6-3.1-0.6-4.65-0.6-8.27c0.6-1.03,4.17-1.03,8.33-7.24 l5.95-9.31c1.79-3.1,3.57-6.21,5.95-9.31c1.19-2.07,1.79-3.1,2.38-5.17c0.6-1.55,1.79-3.62,1.19-5.17 c-2.38-1.03-3.57,1.03-5.36,2.59l-24.4,20.17C335.69,230.75,335.09,230.23,335.69,238.51"/>
            </g>
            <g>
              <g>
                <path class="st1" d="M517.04,309.88c1.11,0,2.12-0.24,3.02-0.72c0.91-0.48,1.69-1.07,2.37-1.75 c0.67-0.69,1.29-1.42,1.84-2.21c0.56-0.79,1.07-1.54,1.53-2.25c0.35-1.32,0.83-2.88,1.45-4.68c0.61-1.8,1.26-3.71,1.93-5.71 c0.67-2.01,1.36-4.02,2.06-6.05c0.7-2.03,1.37-3.96,2.02-5.79c-0.12,0.1-0.12-0.05,0-0.46c0.23-0.66,0.29-1.36,0.18-2.09 c-0.12-0.74-0.35-1.41-0.7-2.02c-0.35-0.61-0.79-1.12-1.31-1.52c-0.53-0.41-1.08-0.61-1.66-0.61c-1.11,0-2.19,0.37-3.24,1.1 c-1.05,0.74-2.07,1.7-3.07,2.89c-0.99,1.19-1.91,2.51-2.76,3.96c-0.85,1.45-1.61,2.88-2.28,4.3 c-0.67,1.42-1.26,2.74-1.75,3.96c-0.5,1.22-0.86,2.18-1.1,2.89c-0.41,1.02-0.85,2.46-1.31,4.34 c-0.47,1.88-0.76,3.76-0.88,5.64c-0.12,1.88,0.07,3.49,0.57,4.84C514.42,309.28,515.46,309.93,517.04,309.88 M536.93,271.57 c0.41-0.05,1.01-0.04,1.8,0.04c0.79,0.08,1.55,0.24,2.28,0.49c0.73,0.25,1.31,0.65,1.75,1.18c0.44,0.53,0.48,1.26,0.13,2.17 c-0.12,0.2-0.48,1.15-1.1,2.86c-0.61,1.7-1.34,3.78-2.19,6.24c-0.85,2.46-1.74,5.09-2.67,7.88c-0.93,2.79-1.77,5.37-2.5,7.73 c-0.73,2.36-1.3,4.34-1.71,5.94c-0.41,1.6-0.5,2.4-0.26,2.4c0.64,0.05,1.42-0.33,2.32-1.14c0.91-0.81,1.85-1.83,2.85-3.05 c0.99-1.22,1.99-2.54,2.98-3.96c0.99-1.42,1.88-2.74,2.67-3.96c0.79-1.22,1.43-2.23,1.93-3.05c0.5-0.81,0.77-1.22,0.83-1.22 c0.06,0,0.22,0.01,0.48,0.04c0.26,0.03,0.54,0.05,0.83,0.08c0.29,0.03,0.54,0.08,0.74,0.15c0.2,0.08,0.28,0.19,0.22,0.34 c0,0.1-0.32,0.69-0.96,1.75s-1.46,2.37-2.45,3.92c-0.99,1.55-2.18,3.22-3.55,5.03c-1.37,1.8-2.8,3.45-4.29,4.95 c-1.49,1.5-3.01,2.74-4.56,3.73c-1.55,0.99-3.02,1.46-4.43,1.41c-0.76,0-1.36-0.14-1.8-0.42c-0.44-0.28-0.8-0.65-1.1-1.1 c-0.29-0.46-0.47-0.96-0.53-1.52c-0.06-0.56-0.12-1.12-0.18-1.68c-1.17,1.22-2.34,2.16-3.51,2.82 c-1.17,0.66-2.28,1.14-3.33,1.45c-1.05,0.3-1.96,0.47-2.72,0.49c-0.76,0.03-1.31,0.01-1.66-0.04 c-0.82-0.05-1.84-0.29-3.07-0.72c-1.23-0.43-2.28-1.32-3.15-2.67c-0.88-1.35-1.4-3.31-1.58-5.9 c-0.18-2.59,0.41-6.09,1.75-10.51c1.17-3.81,2.48-7.02,3.94-9.63c1.46-2.61,2.96-4.76,4.51-6.43 c1.55-1.68,3.1-2.98,4.64-3.92c1.55-0.94,2.98-1.61,4.29-2.02c1.31-0.41,2.44-0.65,3.37-0.72c0.93-0.08,1.61-0.11,2.02-0.11 c0.88,0,1.59,0.16,2.15,0.49c0.55,0.33,1.05,0.74,1.49,1.22c0.44,0.48,0.76,1,0.96,1.56c0.2,0.56,0.37,1.09,0.48,1.6 c0.47-1.27,0.86-2.27,1.18-3.01C536.59,272.02,536.81,271.62,536.93,271.57z M491.71,239.97c-0.7,2.18-1.55,4.81-2.54,7.88 c-0.99,3.07-2.06,6.4-3.2,9.98c-1.14,3.58-2.32,7.31-3.55,11.19c-1.23,3.88-2.45,7.73-3.68,11.54 c0.93-1.22,1.96-2.41,3.07-3.58c1.11-1.17,2.31-2.21,3.59-3.12c1.29-0.91,2.67-1.64,4.16-2.17c1.49-0.53,3.05-0.8,4.69-0.8 c2.1,0.05,3.62,0.65,4.56,1.79c0.93,1.14,1.46,2.63,1.58,4.45c0.12,1.83-0.09,3.9-0.61,6.21c-0.53,2.31-1.2,4.67-2.02,7.08 c-0.82,2.41-1.69,4.79-2.63,7.12c-0.93,2.34-1.72,4.42-2.37,6.24c-0.64,1.83-1.08,3.33-1.31,4.49 c-0.23,1.17-0.03,1.78,0.61,1.83c1.11,0.15,2.32-0.19,3.64-1.03c1.31-0.84,2.57-1.93,3.77-3.27c1.2-1.35,2.37-2.8,3.51-4.38 c1.14-1.57,2.16-3.06,3.07-4.45c0.91-1.4,1.64-2.55,2.19-3.46c0.55-0.91,0.92-1.37,1.1-1.37c0.18,0,0.61,0.04,1.31,0.11 c0.7,0.08,1.02,0.24,0.96,0.49c-0.23,0.76-0.7,1.83-1.4,3.2c-0.7,1.37-1.62,2.87-2.76,4.49c-1.14,1.62-2.44,3.27-3.9,4.95 c-1.46,1.68-3.04,3.17-4.73,4.49c-1.69,1.32-3.45,2.37-5.26,3.16c-1.81,0.79-3.65,1.08-5.52,0.88 c-1.64-0.15-2.72-0.84-3.24-2.06c-0.53-1.22-0.66-2.77-0.39-4.65c0.26-1.88,0.76-4,1.49-6.36c0.73-2.36,1.53-4.73,2.41-7.12 c0.88-2.39,1.66-4.71,2.37-6.97c0.7-2.26,1.12-4.24,1.27-5.94c0.15-1.7-0.06-3.02-0.61-3.96c-0.55-0.94-1.74-1.31-3.55-1.1 c-1.23,0.15-2.44,0.8-3.64,1.94c-1.2,1.14-2.32,2.47-3.37,4c-1.05,1.52-2.03,3.1-2.94,4.72c-0.91,1.62-1.65,3-2.23,4.11 c-0.82,2.69-1.58,5.23-2.28,7.62c-0.7,2.39-1.34,4.56-1.93,6.51c-0.58,1.95-1.04,3.62-1.36,4.99 c-0.32,1.37-0.51,2.39-0.57,3.05c-0.06,0.3-0.55,0.53-1.49,0.69c-0.93,0.15-1.96,0.19-3.07,0.11 c-1.11-0.08-2.03-0.34-2.76-0.8c-0.73-0.46-0.92-1.14-0.57-2.06c0.06-0.15,0.51-1.47,1.36-3.96c0.85-2.49,1.88-5.69,3.11-9.6 h-0.09c0.93-2.94,2.02-6.33,3.24-10.17c1.23-3.83,2.48-7.79,3.77-11.88c1.29-4.09,2.57-8.15,3.86-12.18 c1.29-4.04,2.42-7.75,3.42-11.16c0.99-3.4,1.81-6.32,2.45-8.76c0.64-2.44,1.05-4.11,1.23-5.03c0-0.3,0.47-0.53,1.4-0.69 c0.93-0.15,1.93-0.19,2.98-0.11c1.05,0.08,1.96,0.34,2.72,0.8C491.77,238.37,492,239.06,491.71,239.97z M420.12,250.94 c0.12,0,0.79-0.29,2.02-0.88c1.23-0.58,2.47-1.12,3.72-1.6c1.26-0.48,2.34-0.75,3.24-0.8c0.91-0.05,1.12,0.46,0.66,1.52 L421.35,275c2.22-0.51,4.62-1.42,7.19-2.74c2.57-1.32,5.35-3.3,8.32-5.94c0.53-0.46,0.88-0.38,1.05,0.23 c0.18,0.61,0.23,1.42,0.18,2.44c-0.06,1.02-0.23,2.06-0.53,3.12c-0.29,1.07-0.61,1.83-0.96,2.28 c-0.64,0.91-1.58,1.79-2.8,2.63c-1.23,0.84-2.61,1.6-4.16,2.28c-1.55,0.69-3.23,1.27-5.04,1.75 c-1.81,0.48-3.65,0.8-5.52,0.95l-3.59,10.97c12.33-2.18,22.67-6.57,31.02-13.17c8.35-6.6,14.25-15.36,17.7-26.27 c0.53-1.62,0.67-3.54,0.44-5.75c-0.23-2.21-0.93-4.33-2.1-6.36c-1.17-2.03-2.85-3.76-5.04-5.18 c-2.19-1.42-4.95-2.16-8.28-2.21c-2.69-0.05-5.52,0.13-8.5,0.53c-2.98,0.41-5.96,1.05-8.94,1.94 c-2.98,0.89-5.89,2.04-8.72,3.46c-2.83,1.42-5.43,3.11-7.8,5.06c-2.37,1.95-4.47,4.19-6.31,6.7 c-1.84,2.51-3.23,5.32-4.16,8.41c-1.4,4.37-1.24,7.89,0.48,10.59c1.72,2.69,4.51,4.29,8.37,4.8 c0.88-3.25,1.72-6.37,2.54-9.37c0.82-3,1.52-5.61,2.1-7.84c0.58-2.23,1.05-4.02,1.4-5.37 C420.03,251.61,420.18,250.94,420.12,250.94z M399.61,264.11c1.29-5.53,3.56-10.52,6.84-14.96 c3.27-4.44,7.17-8.22,11.7-11.35c4.53-3.12,9.55-5.52,15.07-7.2c5.52-1.68,11.14-2.49,16.87-2.44 c5.43,0.05,9.93,0.89,13.49,2.51c3.56,1.62,6.32,3.63,8.28,6.02c1.96,2.39,3.2,4.99,3.72,7.81c0.53,2.82,0.5,5.47-0.09,7.96 c-1.29,5.33-3.87,10.47-7.76,15.42c-3.89,4.95-8.59,9.44-14.11,13.48c-5.52,4.04-11.7,7.45-18.53,10.24 c-6.84,2.79-13.85,4.7-21.03,5.71l-7.45,22.92c-0.12,0.36-0.47,0.58-1.05,0.69c-0.58,0.1-1.18,0.13-1.8,0.08 c-0.61-0.05-1.15-0.19-1.62-0.42c-0.47-0.23-0.64-0.49-0.53-0.8c0.47-1.88,1.02-3.99,1.66-6.32c0.53-1.98,1.17-4.3,1.93-6.97 c0.76-2.67,1.55-5.52,2.37-8.57c-1.23,0.1-2.47,0.16-3.72,0.19c-1.26,0.03-2.47-0.01-3.64-0.11 c-0.88-0.05-1.45-0.25-1.71-0.61c-0.26-0.36-0.32-0.74-0.18-1.14c0.15-0.41,0.47-0.79,0.96-1.14 c0.5-0.36,1.12-0.56,1.88-0.61c1.34-0.05,2.63-0.13,3.86-0.23c1.23-0.1,2.42-0.2,3.59-0.3c0.64-2.13,1.21-4.18,1.71-6.13 c0.5-1.95,1.04-4,1.62-6.13c-1.87-0.36-3.68-0.93-5.43-1.71c-1.75-0.79-3.26-1.89-4.51-3.31c-1.26-1.42-2.13-3.16-2.63-5.22 C398.9,269.4,398.97,266.95,399.61,264.11z M341.34,279.57c0.35-1.47,0.64-2.8,0.88-4c0.23-1.19,0.44-2.27,0.61-3.24 c0-0.3,0.5-0.53,1.49-0.69c0.99-0.15,2.02-0.19,3.07-0.11c1.05,0.08,1.97,0.34,2.76,0.8c0.79,0.46,0.98,1.14,0.57,2.06 c-0.18,1.47-0.69,3.4-1.53,5.79c-0.85,2.39-1.77,4.91-2.76,7.58c-0.99,2.67-1.94,5.32-2.85,7.96 c-0.91,2.64-1.5,5.01-1.8,7.12c-0.29,2.11-0.16,3.77,0.39,4.99c0.56,1.22,1.77,1.7,3.64,1.45c1.29-0.15,2.54-0.82,3.77-2.02 c1.23-1.19,2.38-2.58,3.46-4.15c1.08-1.57,2.06-3.19,2.94-4.84c0.88-1.65,1.58-3.01,2.1-4.07c0.88-2.74,1.68-5.39,2.41-7.96 c0.73-2.56,1.4-4.9,2.02-7.01c0.61-2.11,1.15-3.96,1.62-5.56c0.47-1.6,0.88-2.83,1.23-3.69c0.06-0.3,0.5-0.43,1.31-0.38 c0.82,0.05,1.65,0.2,2.5,0.46c0.85,0.25,1.59,0.6,2.23,1.03c0.64,0.43,0.88,0.82,0.7,1.18c-0.06,0.2-0.35,1.31-0.88,3.31 c-0.53,2.01-1.23,4.61-2.1,7.81s-1.91,6.79-3.11,10.78s-2.48,8.06-3.86,12.22c-1.37,4.16-2.82,8.21-4.34,12.15 c-1.52,3.93-3.04,7.45-4.56,10.55c-1.29,2.59-2.72,4.68-4.29,6.28c-1.58,1.6-3.21,2.83-4.91,3.69 c-1.69,0.86-3.36,1.45-5,1.75c-1.64,0.3-3.13,0.46-4.47,0.46c-2.28,0.05-4.05-0.33-5.3-1.14c-1.26-0.81-2.18-1.84-2.76-3.08 c-0.58-1.24-0.86-2.61-0.83-4.11c0.03-1.5,0.16-2.93,0.39-4.3c0.23-1.37,0.54-2.55,0.92-3.54c0.38-0.99,0.63-1.61,0.74-1.87 c0.23-0.41,0.83-0.79,1.8-1.14c0.96-0.36,1.99-0.63,3.07-0.84c1.08-0.2,2-0.3,2.76-0.3c0.76,0,1.05,0.15,0.88,0.46 c-0.93,2.18-1.83,4.33-2.67,6.43c-0.85,2.11-1.34,3.99-1.49,5.64c-0.15,1.65,0.13,2.97,0.83,3.96 c0.7,0.99,2.1,1.43,4.21,1.33c1.46-0.05,2.94-1.08,4.43-3.08c1.49-2.01,3.01-4.61,4.56-7.81c1.55-3.2,3.07-6.85,4.56-10.97 c1.49-4.11,2.94-8.3,4.34-12.57c-0.88,1.22-1.88,2.42-3.02,3.62c-1.14,1.19-2.37,2.25-3.68,3.16 c-1.31,0.91-2.72,1.65-4.21,2.21c-1.49,0.56-3.05,0.84-4.69,0.84c-2.28-0.05-3.88-0.7-4.82-1.94 c-0.93-1.24-1.42-2.87-1.45-4.87c-0.03-2.01,0.28-4.25,0.92-6.74c0.64-2.49,1.42-5,2.32-7.54c0.91-2.54,1.83-4.99,2.76-7.35 C340.08,283.34,340.81,281.29,341.34,279.57z M330.74,290.84c-0.53,0.46-1.12,0.88-1.8,1.26c-0.67,0.38-1.29,0.63-1.84,0.76 c-0.55,0.13-0.96,0.09-1.23-0.11c-0.26-0.2-0.28-0.69-0.04-1.45c1.29-1.93,2.28-3.93,2.98-6.02c0.7-2.08,1.1-3.99,1.18-5.71 c0.09-1.73-0.12-3.12-0.61-4.19c-0.5-1.07-1.21-1.55-2.15-1.45c-0.88,0.1-1.91,1.04-3.11,2.82c-1.2,1.78-2.4,3.9-3.59,6.36 c-1.2,2.46-2.32,4.99-3.37,7.58c-1.05,2.59-1.81,4.72-2.28,6.4c-0.88,2.79-1.3,5.06-1.27,6.82c0.03,1.75,0.28,3.11,0.74,4.07 c0.47,0.96,1.04,1.61,1.71,1.94c0.67,0.33,1.21,0.47,1.62,0.42c1.58-0.1,3.11-0.52,4.6-1.26c1.49-0.74,2.91-1.68,4.25-2.82 c1.34-1.14,2.61-2.4,3.81-3.77c1.2-1.37,2.28-2.72,3.24-4.04c0.96-1.32,1.77-2.55,2.41-3.69c0.64-1.14,1.14-2.04,1.49-2.7 c0.23-0.25,0.72-0.37,1.45-0.34c0.73,0.03,1.1,0.29,1.1,0.8c-0.06,0.15-0.39,0.77-1.01,1.87c-0.61,1.09-1.46,2.41-2.54,3.96 c-1.08,1.55-2.37,3.2-3.86,4.95c-1.49,1.75-3.14,3.38-4.95,4.87c-1.81,1.5-3.75,2.77-5.83,3.81 c-2.07,1.04-4.19,1.61-6.35,1.71c-1.99,0.1-3.58-0.19-4.78-0.88c-1.2-0.69-2.12-1.57-2.76-2.67 c-0.64-1.09-1.07-2.31-1.27-3.66c-0.2-1.35-0.28-2.64-0.22-3.88c0.06-1.24,0.16-2.34,0.31-3.27 c0.15-0.94,0.28-1.59,0.39-1.94c0.18-0.66,0.51-1.75,1.01-3.27c0.5-1.52,1.15-3.24,1.97-5.14c0.82-1.9,1.8-3.88,2.94-5.94 c1.14-2.06,2.45-3.95,3.94-5.67c1.49-1.73,3.13-3.19,4.91-4.38c1.78-1.19,3.75-1.89,5.92-2.09c2.22-0.2,3.91,0.36,5.08,1.68 c1.17,1.32,1.84,3.01,2.02,5.06c0.18,2.06-0.1,4.29-0.83,6.7C333.38,286.74,332.26,288.91,330.74,290.84z M297.44,272.79 c0.58-0.05,1.3-0.23,2.15-0.53c0.85-0.3,1.71-0.57,2.59-0.8c0.88-0.23,1.72-0.32,2.54-0.27c0.82,0.05,1.46,0.41,1.93,1.07 c0.23,0.3,0.42,0.71,0.57,1.22c0.15,0.51,0.22,1.03,0.22,1.56c0,0.53-0.07,1.04-0.22,1.52c-0.15,0.48-0.45,0.85-0.92,1.1 c-0.41,0.25-0.99,1.03-1.75,2.32c-0.76,1.29-1.39,2.78-1.88,4.45c-0.5,1.68-0.72,3.4-0.66,5.18 c0.06,1.78,0.67,3.27,1.84,4.49c0.18,0.25,0.09,0.61-0.26,1.07c-0.35,0.46-0.88,0.89-1.58,1.29c-0.7,0.41-1.53,0.76-2.5,1.07 c-0.96,0.3-1.9,0.41-2.8,0.3c-0.91-0.1-1.72-0.46-2.45-1.07c-0.73-0.61-1.27-1.57-1.62-2.89c-0.29-1.32-0.16-2.92,0.39-4.8 c0.56-1.88,1.21-3.71,1.97-5.48c0.76-1.78,1.46-3.31,2.1-4.61c0.64-1.29,0.91-1.99,0.79-2.09c-0.18-0.15-0.6,0.13-1.27,0.84 c-0.67,0.71-1.52,1.71-2.54,3.01c-1.02,1.29-2.12,2.82-3.29,4.57c-1.17,1.75-2.32,3.57-3.46,5.44 c-1.14,1.88-2.22,3.78-3.24,5.71c-1.02,1.93-1.85,3.71-2.5,5.33c-0.64,2.28-1.18,4.34-1.62,6.17 c-0.44,1.83-0.72,3.4-0.83,4.72c-0.06,0.3-0.55,0.53-1.49,0.69c-0.93,0.15-1.96,0.19-3.07,0.11 c-1.11-0.08-2.03-0.34-2.76-0.8c-0.73-0.46-0.92-1.14-0.57-2.06c0.06-0.15,0.51-1.47,1.36-3.96c0.85-2.49,1.88-5.69,3.11-9.6 h-0.09c1.46-4.42,2.6-7.96,3.42-10.62c0.82-2.67,1.43-4.84,1.84-6.51c0.41-1.68,0.72-3.07,0.92-4.19 c0.2-1.12,0.39-2.36,0.57-3.73c0-0.3,0.47-0.53,1.4-0.69c0.93-0.15,1.93-0.19,2.98-0.11c1.05,0.08,1.97,0.34,2.76,0.8 c0.79,0.46,1.01,1.14,0.66,2.06c-0.82,2.44-1.58,4.77-2.28,7.01c-0.7,2.23-1.37,4.42-2.02,6.55 c1.11-1.83,2.28-3.62,3.51-5.37c1.23-1.75,2.38-3.33,3.46-4.72c1.08-1.4,2.03-2.53,2.85-3.39 C296.5,273.3,297.09,272.84,297.44,272.79z M255.2,297.08c-0.47,1.37-0.8,2.61-1.01,3.73c-0.2,1.12-0.31,2.11-0.31,2.97 c0.7,0.05,1.62-0.03,2.76-0.23c1.14-0.2,2.37-0.77,3.68-1.71c1.31-0.94,2.66-2.37,4.03-4.3c1.37-1.93,2.67-4.62,3.9-8.07 c1.87-5.53,2.7-9.58,2.5-12.15c-0.2-2.56-1.27-3.69-3.2-3.39c-0.64,0.1-1.31,0.58-2.02,1.45c-0.7,0.86-1.47,1.97-2.32,3.31 c-0.85,1.35-1.66,2.84-2.45,4.49c-0.79,1.65-1.53,3.33-2.23,5.03c-0.7,1.7-1.36,3.33-1.97,4.87 C255.95,294.63,255.49,295.97,255.2,297.08z M268.17,270.89c2.4-0.2,4.16,0.3,5.3,1.52c1.14,1.22,1.85,2.77,2.15,4.65 c0.29,1.88,0.26,3.91-0.09,6.09c-0.35,2.18-0.88,4.16-1.58,5.94c-1.52,3.81-3.21,6.8-5.08,8.99 c-1.87,2.18-3.74,3.85-5.61,4.99c-1.87,1.14-3.64,1.87-5.3,2.17c-1.66,0.3-2.96,0.46-3.9,0.46c0.23,1.93,0.82,3.21,1.75,3.85 c0.93,0.63,1.66,0.9,2.19,0.8c1.58-0.1,3.11-0.52,4.6-1.26c1.49-0.74,2.91-1.68,4.25-2.82c1.34-1.14,2.61-2.4,3.81-3.77 c1.2-1.37,2.28-2.72,3.24-4.04c0.96-1.32,1.77-2.55,2.41-3.69c0.64-1.14,1.14-2.04,1.49-2.7c0.23-0.25,0.72-0.37,1.45-0.34 c0.73,0.03,1.1,0.29,1.1,0.8c-0.06,0.15-0.39,0.77-1.01,1.87c-0.61,1.09-1.46,2.41-2.54,3.96c-1.08,1.55-2.37,3.2-3.86,4.95 c-1.49,1.75-3.14,3.38-4.95,4.87c-1.81,1.5-3.75,2.77-5.83,3.81c-2.07,1.04-4.19,1.61-6.35,1.71 c-1.99,0.1-3.58-0.19-4.78-0.88c-1.2-0.69-2.12-1.57-2.76-2.67c-0.64-1.09-1.07-2.31-1.27-3.66 c-0.2-1.35-0.28-2.64-0.22-3.88c0.06-1.24,0.16-2.34,0.31-3.27c0.15-0.94,0.28-1.59,0.39-1.94c0.18-0.71,0.51-1.83,1.01-3.35 c0.5-1.52,1.15-3.24,1.97-5.14c0.82-1.9,1.8-3.88,2.94-5.94c1.14-2.06,2.45-3.96,3.94-5.71c1.49-1.75,3.13-3.21,4.91-4.38 C264.04,271.7,266.01,271.04,268.17,270.89z M248.54,231.21c0.35-0.41,0.88-0.6,1.58-0.57c0.7,0.03,1.48,0.2,2.32,0.53 c0.85,0.33,1.72,0.75,2.63,1.26c0.91,0.51,1.69,1.03,2.37,1.56c0.67,0.53,1.18,1.03,1.53,1.49c0.35,0.46,0.44,0.79,0.26,0.99 l-27.78,87.8c-0.23,0.61-0.67,0.9-1.31,0.88c-0.64-0.03-1.29-0.19-1.93-0.5c-0.64-0.3-1.2-0.69-1.66-1.14 c-0.47-0.46-0.67-0.84-0.61-1.14c2.34-8.48,4.59-16.93,6.75-25.36c0.93-3.6,1.91-7.37,2.94-11.31 c1.02-3.93,2.04-7.88,3.07-11.84c1.02-3.96,2.03-7.86,3.02-11.69c0.99-3.83,1.9-7.45,2.72-10.85 c-1.69,3.1-3.56,6.63-5.61,10.59c-2.04,3.96-4.16,8.11-6.35,12.45c-2.19,4.34-4.37,8.74-6.53,13.21 c-2.16,4.47-4.15,8.74-5.96,12.83c-1.81,4.09-3.39,7.86-4.73,11.31s-2.31,6.32-2.89,8.61c0,0.25,0,0.43,0,0.53 c0,0.1-0.03,0.18-0.09,0.23l-0.18,0.23c-0.06,0.1-0.07,0.18-0.04,0.23c0.03,0.05,0.01,0.13-0.04,0.23 c0,0.05-0.06,0-0.18-0.15c-0.58,0.36-1.33,0.29-2.23-0.19c-0.91-0.48-1.81-1.17-2.72-2.06c-0.91-0.89-1.69-1.88-2.37-2.97 c-0.67-1.09-1.04-2.04-1.1-2.86c-0.12-2.49-0.32-5.8-0.61-9.94c-0.29-4.14-0.66-8.68-1.1-13.63 c-0.44-4.95-0.89-10.1-1.36-15.46c-0.47-5.36-0.93-10.47-1.4-15.34l-20.42,67.17c-0.35,0.3-0.86,0.42-1.53,0.34 c-0.67-0.08-1.31-0.29-1.93-0.65c-0.61-0.36-1.14-0.79-1.58-1.29c-0.44-0.51-0.63-1.07-0.57-1.68 c4.15-15.69,7.95-29.93,11.39-42.72c1.4-5.43,2.82-10.81,4.25-16.14c1.43-5.33,2.73-10.19,3.9-14.58 c1.17-4.39,2.13-8.08,2.89-11.08c0.76-3,1.26-4.9,1.49-5.71l0.09-0.15c0.06-0.81,0.67-1.54,1.84-2.17 c1.17-0.63,2.42-1.04,3.77-1.22c1.34-0.18,2.47-0.05,3.37,0.38c0.91,0.43,1.12,1.31,0.66,2.63 c-0.47,1.22-0.73,3.34-0.79,6.36c-0.06,3.02,0.01,6.63,0.22,10.81c0.2,4.19,0.5,8.77,0.88,13.75 c0.38,4.98,0.82,10,1.31,15.08c0.5,5.08,0.98,10.04,1.45,14.89c0.47,4.85,0.91,9.2,1.31,13.06c1.69-3.2,3.61-6.83,5.74-10.89 c2.13-4.06,4.35-8.33,6.66-12.79c2.31-4.47,4.66-9.02,7.05-13.67c2.4-4.65,4.69-9.18,6.88-13.59 c2.19-4.42,4.25-8.59,6.18-12.53c1.93-3.93,3.56-7.45,4.91-10.55c0-0.2,0.01-0.38,0.04-0.53 C248.44,231.52,248.48,231.36,248.54,231.21z" style="fill: rgb(255, 255, 255);"/>
              </g>
            </g>
            <g>
              <g>
                <path class="st1" d="M601.25,305.46c-0.29,1.47-0.57,2.8-0.83,4c-0.26,1.19-0.42,2.27-0.48,3.24 c-0.06,0.3-0.57,0.53-1.53,0.69c-0.96,0.15-1.99,0.19-3.07,0.11c-1.08-0.08-2-0.34-2.76-0.8c-0.76-0.46-0.96-1.14-0.61-2.06 c0.18-1.47,0.69-3.4,1.53-5.79c0.85-2.39,1.75-4.91,2.72-7.58c0.96-2.67,1.9-5.32,2.8-7.96c0.91-2.64,1.52-5.01,1.84-7.12 c0.32-2.11,0.2-3.76-0.35-4.95c-0.55-1.19-1.77-1.69-3.64-1.48c-1.4,0.2-2.79,1.02-4.16,2.44c-1.37,1.42-2.63,3.03-3.77,4.84 c-1.14,1.8-2.15,3.57-3.02,5.29c-0.88,1.73-1.55,2.97-2.02,3.73c-1.4,4.62-2.59,8.68-3.55,12.18 c-0.96,3.5-1.56,6.32-1.8,8.45c-0.06,0.3-0.55,0.53-1.49,0.69c-0.93,0.15-1.96,0.19-3.07,0.11c-1.11-0.08-2.03-0.34-2.76-0.8 c-0.73-0.46-0.92-1.14-0.57-2.06c0.06-0.15,0.51-1.47,1.36-3.96c0.85-2.49,1.88-5.69,3.11-9.6h-0.09 c1.46-4.42,2.6-7.96,3.42-10.62c0.82-2.67,1.43-4.84,1.84-6.51c0.41-1.68,0.72-3.07,0.92-4.19c0.2-1.12,0.39-2.36,0.57-3.73 c0-0.3,0.47-0.53,1.4-0.69c0.93-0.15,1.93-0.19,2.98-0.11c1.05,0.08,1.97,0.34,2.76,0.8c0.79,0.46,1.01,1.14,0.66,2.06 l-2.28,7.16c0.88-1.27,1.88-2.53,3.02-3.77c1.14-1.24,2.4-2.36,3.77-3.35c1.37-0.99,2.83-1.79,4.38-2.4 c1.55-0.61,3.17-0.89,4.86-0.84c1.46,0.05,2.64,0.38,3.55,0.99c0.91,0.61,1.56,1.42,1.97,2.44c0.41,1.02,0.61,2.22,0.61,3.62 c0,1.4-0.15,2.88-0.44,4.45c0.93-1.37,1.97-2.74,3.11-4.11c1.14-1.37,2.42-2.61,3.86-3.73c1.43-1.12,2.96-2.02,4.6-2.7 c1.64-0.69,3.39-1,5.26-0.95c2.1,0.05,3.62,0.65,4.56,1.79c0.93,1.14,1.46,2.63,1.58,4.45c0.12,1.83-0.09,3.9-0.61,6.21 c-0.53,2.31-1.2,4.67-2.02,7.08c-0.82,2.41-1.69,4.79-2.63,7.12c-0.93,2.34-1.72,4.42-2.37,6.24 c-0.64,1.83-1.08,3.33-1.31,4.49c-0.23,1.17-0.03,1.78,0.61,1.83c1.11,0.15,2.31-0.19,3.59-1.03 c1.29-0.84,2.54-1.93,3.77-3.27c1.23-1.35,2.4-2.8,3.51-4.38c1.11-1.57,2.13-3.06,3.07-4.45c0.93-1.4,1.68-2.55,2.23-3.46 c0.55-0.91,0.92-1.37,1.1-1.37c0.06,0,0.22,0.01,0.48,0.04c0.26,0.03,0.54,0.05,0.83,0.08c0.29,0.03,0.54,0.08,0.74,0.15 c0.2,0.08,0.28,0.19,0.22,0.34c-0.23,0.76-0.7,1.83-1.4,3.2c-0.7,1.37-1.62,2.87-2.76,4.49c-1.14,1.62-2.45,3.27-3.94,4.95 c-1.49,1.68-3.07,3.17-4.73,4.49c-1.66,1.32-3.4,2.37-5.21,3.16c-1.81,0.79-3.65,1.08-5.52,0.88 c-1.64-0.15-2.72-0.84-3.24-2.06c-0.53-1.22-0.66-2.77-0.39-4.65c0.26-1.88,0.76-4,1.49-6.36c0.73-2.36,1.53-4.73,2.41-7.12 c0.88-2.39,1.66-4.71,2.37-6.97c0.7-2.26,1.12-4.24,1.27-5.94c0.15-1.7-0.06-3.02-0.61-3.96c-0.55-0.94-1.74-1.31-3.55-1.1 c-1.05,0.15-2.1,0.66-3.15,1.52c-1.05,0.86-2.03,1.89-2.94,3.08c-0.91,1.19-1.78,2.49-2.63,3.88 c-0.85,1.4-1.59,2.7-2.23,3.92c-0.64,1.22-1.17,2.26-1.58,3.12c-0.41,0.86-0.7,1.35-0.88,1.45 c-0.88,2.44-1.75,4.76-2.63,6.97C602.48,301.92,601.77,303.84,601.25,305.46 M565.5,272.79c0.58-0.05,1.3-0.23,2.15-0.53 c0.85-0.3,1.71-0.57,2.59-0.8c0.88-0.23,1.72-0.32,2.54-0.27c0.82,0.05,1.46,0.41,1.93,1.07c0.23,0.3,0.42,0.71,0.57,1.22 c0.15,0.51,0.22,1.03,0.22,1.56c0,0.53-0.07,1.04-0.22,1.52c-0.15,0.48-0.45,0.85-0.92,1.1c-0.41,0.25-0.99,1.03-1.75,2.32 c-0.76,1.29-1.39,2.78-1.88,4.45c-0.5,1.68-0.72,3.4-0.66,5.18c0.06,1.78,0.67,3.27,1.84,4.49c0.18,0.25,0.09,0.61-0.26,1.07 c-0.35,0.46-0.88,0.89-1.58,1.29c-0.7,0.41-1.53,0.76-2.5,1.07c-0.96,0.3-1.9,0.41-2.8,0.3c-0.91-0.1-1.72-0.46-2.45-1.07 c-0.73-0.61-1.27-1.57-1.62-2.89c-0.29-1.32-0.16-2.92,0.39-4.8c0.56-1.88,1.21-3.71,1.97-5.48c0.76-1.78,1.46-3.31,2.1-4.61 c0.64-1.29,0.91-1.99,0.79-2.09c-0.18-0.15-0.6,0.13-1.27,0.84c-0.67,0.71-1.52,1.71-2.54,3.01 c-1.02,1.29-2.12,2.82-3.29,4.57c-1.17,1.75-2.32,3.57-3.46,5.44c-1.14,1.88-2.22,3.78-3.24,5.71 c-1.02,1.93-1.85,3.71-2.5,5.33c-0.64,2.28-1.18,4.34-1.62,6.17c-0.44,1.83-0.72,3.4-0.83,4.72 c-0.06,0.3-0.55,0.53-1.49,0.69c-0.93,0.15-1.96,0.19-3.07,0.11s-2.03-0.34-2.76-0.8c-0.73-0.46-0.92-1.14-0.57-2.06 c0.06-0.15,0.51-1.47,1.36-3.96c0.85-2.49,1.88-5.69,3.11-9.6h-0.09c1.46-4.42,2.6-7.96,3.42-10.62 c0.82-2.67,1.43-4.84,1.84-6.51c0.41-1.68,0.72-3.07,0.92-4.19c0.2-1.12,0.39-2.36,0.57-3.73c0-0.3,0.47-0.53,1.4-0.69 c0.93-0.15,1.93-0.19,2.98-0.11c1.05,0.08,1.97,0.34,2.76,0.8c0.79,0.46,1.01,1.14,0.66,2.06c-0.82,2.44-1.58,4.77-2.28,7.01 c-0.7,2.23-1.37,4.42-2.02,6.55c1.11-1.83,2.28-3.62,3.51-5.37c1.23-1.75,2.38-3.33,3.46-4.72c1.08-1.4,2.03-2.53,2.85-3.39 C564.56,273.3,565.15,272.84,565.5,272.79z" style="fill: rgb(255, 255, 255);"/>
              </g>
            </g>
          </g>
        </g>
      </g>
    </g>
  </g>
</svg>